<?xml version="1.0" encoding="UTF-8"?><svg id="Ebene_1" xmlns="http://www.w3.org/2000/svg" viewBox="0 0 188.52 46.41"><g><path d="M3.86,43.15h6.94c1.08,0,1.53-.54,1.53-1.67v-3.83h-.27c-.69,.99-2.03,2.27-4.7,2.27-4.19,0-7.36-3.47-7.36-8.26s3.11-8.2,7.33-8.2c2.84,0,4.13,1.58,4.79,2.36h.27v-1.98h3.47v17.86c0,3.29-2.09,4.7-5.02,4.7H3.86v-3.26h0Zm8.56-11.46c0-2.84-1.82-4.91-4.4-4.91s-4.43,1.94-4.43,4.91,1.91,4.91,4.4,4.91,4.43-1.97,4.43-4.91Z"/><path d="M20.34,23.86h3.5v2.3h.24c.6-1.32,2.12-2.69,4.13-2.69h1.17v3.53h-1.56c-2.57,0-3.95,1.83-3.95,4.79v7.75h-3.53v-15.67h0Z"/><path d="M34.52,26.97h-2.75v-3.11h6.28v15.67h-3.53s0-12.56,0-12.56Zm-.45-7.75c0-1.23,.96-2.18,2.24-2.18s2.24,.96,2.24,2.18-.96,2.21-2.24,2.21-2.24-.96-2.24-2.21Z"/><path d="M41.85,31.7c0-4.67,3.02-8.23,7.24-8.23,2.78,0,4.13,1.5,4.82,2.39h.27v-8.76h3.53v22.43h-3.47v-1.85h-.27c-.66,.81-1.94,2.24-4.67,2.24-4.22,0-7.45-3.47-7.45-8.23Zm12.41,.03c0-3.11-2-4.93-4.43-4.93s-4.43,2.03-4.43,4.93,2,4.91,4.46,4.91c2.66,0,4.4-2.24,4.4-4.91Z"/><path d="M61.89,17.1h3.53v8.56h.27c.69-1.17,2.15-2.18,4.25-2.18,3.44,0,5.71,2.57,5.71,5.8v10.26h-3.53v-9.42c0-1.94-1.47-3.29-3.26-3.29-1.92,0-3.44,1.44-3.44,3.38v9.33h-3.53V17.1h0Z"/><path d="M78.79,31.7c0-4.67,3.47-8.23,8.29-8.23s8.25,3.56,8.25,8.23-3.47,8.23-8.29,8.23-8.25-3.53-8.25-8.23Zm12.95,0c0-2.78-1.94-4.88-4.7-4.88s-4.67,2.09-4.67,4.88,1.94,4.88,4.67,4.88,4.7-2.06,4.7-4.88Z"/><path d="M98.77,34.12v-10.26h3.53v9.33c0,1.94,1.38,3.29,3.17,3.29,1.94,0,3.41-1.49,3.41-3.47v-9.15h3.53v15.67h-3.53v-1.79h-.27c-.69,1.2-2.12,2.18-4.22,2.18-3.44,0-5.62-2.57-5.62-5.8Z"/><path d="M116.9,23.86h3.53v1.8h.27c.69-1.2,2.12-2.18,4.22-2.18,3.44,0,5.62,2.57,5.62,5.8v10.26h-3.53v-9.42c0-1.94-1.38-3.29-3.17-3.29-1.94,0-3.41,1.49-3.41,3.47v9.24h-3.53v-15.67h0Z"/><path d="M133.68,31.7c0-4.67,3.02-8.23,7.24-8.23,2.78,0,4.13,1.5,4.82,2.39h.27v-8.76h3.53v22.43h-3.47v-1.85h-.27c-.66,.81-1.94,2.24-4.67,2.24-4.22,0-7.45-3.47-7.45-8.23Zm12.41,.03c0-3.11-2-4.93-4.43-4.93s-4.43,2.03-4.43,4.93,2,4.91,4.46,4.91c2.66,0,4.4-2.24,4.4-4.91Z"/></g>
<circle cx="184.52" cy="2.26" r="1.52"/><path d="M188.49,15l-2.73-8.33c-.19-.55-.69-.91-1.26-.91s-1.08,.38-1.26,.94l-5.11,15.62L171.17,.94c-.18-.56-.68-.94-1.26-.94s-1.07,.37-1.25,.91l-5.31,16.26-2.32-7.08c-.06-.14-.2-.23-.35-.23s-.29,.09-.35,.24l-.96,2.94c-.02,.06-.04,.14-.04,.22,0,.06,.02,.12,.03,.18l2.74,8.35c.18,.56,.69,.93,1.26,.93s1.08-.38,1.26-.94l5.3-16.21,6.96,21.36c.18,.56,.69,.93,1.26,.93s1.08-.37,1.27-.93l5.11-15.62,2.3,7.04c.06,.14,.2,.23,.35,.23s.29-.09,.35-.24l.97-3c.02-.06,.03-.1,.03-.16,0-.06-.01-.1-.03-.16Z"/>
<animate attributeName="fill" values="black;#2a3289;#2a3289;black" dur="10s" repeatCount="indefinite" />
</svg>
