<svg clip-rule="evenodd" fill-rule="evenodd" stroke-linejoin="round" stroke-miterlimit="1.4" viewBox="0 0 388 78" xmlns="http://www.w3.org/2000/svg"><g fill="#717676"><path d="m221 76v-21.8c0-.4-.4-.8-.8-.8h-2c-.5 0-.9.4-.9.8v8.6h-7.5v-8.6c0-.4-.5-.8-1-.8h-2c-.4 0-.8.4-.8.8v21.8c0 .5.4.9.9.9h2c.4 0 .9-.4.9-.9v-10h7.5v10c0 .5.4.9.8.9h2c.5 0 1-.4 1-.9zm17.6 0v-1.7c0-.4-.4-.8-.9-.8h-8v-7.5h7.4c.4 0 .8-.3.8-.8v-1.5c0-.5-.4-.9-.8-.9h-7.3v-6.1h8c.5 0 .8-.4.8-.9v-1.6c0-.4-.4-.8-.8-.8h-10.9c-.5 0-.8.4-.8.8v21.8c0 .5.3.9.8.9h10.9c.4 0 .8-.4.8-.9z" fill-rule="nonzero"/><path d="m258.6 75.8a129 129 0 0 0 -3-7.4c-.7-1.6-2-3-3.7-3.3 3-.4 5.1-2.5 5.1-5.8 0-3.8-2.5-6-7.1-6h-6.2c-.5 0-.8.4-.8.9v21.8c0 .4.3.8.8.8h2c.5 0 .9-.4.9-.8v-9.7h1c2.4 0 3.5 1.3 4.3 2.8 1 1.9 2 5.4 2.5 7 .2.5.6.7 1 .7h2.6c.7 0 .8-.5.6-1.1zm-5.4-16c0 2.3-1.4 3.6-3.8 3.6h-2.8v-6.8h3.2c2.3 0 3.4 1.3 3.4 3.2z"/><path d="m278.2 76v-21.7c0-.4-.4-.8-.9-.8h-1.8c-.4 0-.9.4-.9.8v13.3c0 2.2.4 5.5.5 5.8l-1.6-5-5.9-14.3c-.2-.4-.7-.6-1.1-.6h-3.3c-.5 0-.9.3-.9.8v21.7c0 .4.4.8.9.8h1.8c.5 0 .9-.4.9-.8v-13.6c0-1.8-.5-5.7-.5-6l1.5 5.1 6.2 14.7c.2.4.5.7 1 .7h3.2c.5 0 .9-.4.9-.8zm17.6 0v-1.7c0-.4-.5-.8-1-.8h-7.8v-7.5h7.3c.5 0 .9-.3.9-.8v-1.5c0-.5-.4-.9-.9-.9h-7.3v-6.1h8c.5 0 .9-.4.9-.9v-1.6c0-.4-.4-.8-.9-.8h-11c-.4 0-.8.4-.8.8v21.8c0 .5.4.9.8.9h11c.4 0 .8-.4.8-.9zm-76.1-36c0-3.7-1.7-5.4-4-6.5l-1.9-1c-1.9-.9-3.6-1.7-3.6-3.4 0-2 1-3 3.3-3 2 0 3 .6 3.6.8.5.1 1-.2 1-.6l.4-1.6c0-.4 0-.8-.5-1s-2.4-.8-4.5-.8c-4.5 0-7.2 2.6-7.2 6.4s2.4 5.2 4.7 6.4l1.6.8c1.9.8 3.2 1.7 3.2 3.7 0 2.1-1.2 3.3-3.6 3.3-2 0-4-.8-4.7-1a.7.7 0 0 0 -1 .5l-.4 1.8c-.1.4 0 .9.5 1 .7.3 3 1 5.7 1 4.8 0 7.4-2.7 7.4-6.8zm17.1-14.3v-1.7c0-.4-.4-.8-.8-.8h-13.7c-.5 0-.9.4-.9.8v1.7c0 .4.4.8.9.8h5v19.3c0 .5.4.9.8.9h2c.5 0 .9-.4.9-.9v-19.3h5c.4 0 .8-.4.8-.8z" fill-rule="nonzero"/><path d="m253.8 45.7-6.5-21.8c-.1-.5-.6-.7-1-.7h-3.5c-.4 0-1 .2-1 .7l-6.2 21.8c-.1.5.1 1 .7 1h2.2c.5 0 1-.4 1-.8l1.4-5.2h7.3l1.5 5.2c.1.4.6.8 1 .8h2.5c.5 0 .8-.5.6-1zm-6.4-8.2h-5.7l2.3-9.3.5-3.1.5 3.1zm25.3-2.7c0-9-3.9-11.6-8.9-11.6h-5.5c-.5 0-.8.4-.8.8v21.8c0 .5.3.9.8.9h5.7c6.7 0 8.7-4.4 8.7-12zm-4 .2c0 7-1.9 8.4-5.3 8.4h-2.2v-17.1h2.3c1.5 0 2.8.5 3.7 1.6 1 1.3 1.6 3.3 1.6 7z"/><path d="m289.4 25.7v-1.7c0-.4-.4-.8-.8-.8h-13.7c-.4 0-.9.4-.9.8v1.7c0 .4.5.8 1 .8h4.9v19.3c0 .5.4.9.8.9h2c.5 0 .9-.4.9-.9v-19.3h5c.4 0 .8-.4.8-.8zm28.4-1.6c.1-.4-.2-1-.7-1h-2.1a1 1 0 0 0 -1 1l-2.4 15.3-.5 4.9c0-.5-.3-3.4-.6-5l-2.9-15.3c-.1-.5-.4-.8-1-.8h-3.3c-.6 0-1 .2-1 .8l-3.1 15.4a82 82 0 0 0 -.7 4.9l-.4-5-2.3-15.3c0-.5-.4-.8-1-.8h-2.5c-.5 0-.7.4-.6 1l3.9 21.7c0 .5.4.8.9.8h3.7c.4 0 .9-.3 1-.8l3.2-16.1.4-4.4.5 4.3 3 16.2c.1.5.6.8 1 .8h3.5c.5 0 1-.4 1.1-.8l4-21.8zm15.9 21.7v-1.7c0-.5-.4-.8-.8-.8h-8v-7.5h7.3c.4 0 .8-.4.8-.9v-1.4c0-.5-.4-.9-.8-.9h-7.3v-6.1h8c.5 0 .8-.5.8-1v-1.5c0-.5-.4-.8-.8-.8h-10.9c-.4 0-.8.3-.8.8v21.8c0 .5.4.9.8.9h11c.4 0 .8-.4.8-.9z" fill-rule="nonzero"/><path d="m353.7 45.6c-1-2.6-2.4-6.2-3-7.4-.7-1.6-2-3-3.7-3.4 3-.3 5.1-2.4 5.1-5.7 0-3.8-2.5-6-7.1-6h-6.2c-.4 0-.8.4-.8.9v21.8c0 .5.4.9.8.9h2c.5 0 .9-.4.9-.9v-9.6h1c2.4 0 3.5 1.3 4.4 2.8 1 1.9 2 5.4 2.4 7 .2.5.6.7 1 .7h2.6c.7 0 .8-.5.6-1.1zm-5.4-16c0 2.3-1.4 3.6-3.8 3.6h-2.8v-6.8h3.2c2.3 0 3.4 1.3 3.4 3.2z"/><path d="m372.3 45.7-7.5-12.2 6.7-9.4c.3-.4.2-1-.5-1h-2.4c-.5 0-.9.2-1.1.6l-6.3 9.4v-9.1c0-.5-.4-.8-.9-.8h-2c-.5 0-.8.3-.8.8v21.8c0 .5.3.9.8.9h2c.5 0 .9-.4.9-.9v-11.5l6.8 11.7c.3.5.6.7 1.2.7h2.6c.6 0 .8-.5.5-1zm15.6.1v-1.7c0-.5-.5-.8-1-.8h-7.9v-7.5h7.3c.5 0 .8-.4.8-.9v-1.4c0-.5-.3-.9-.8-.9h-7.3v-6.1h8c.5 0 .8-.5.8-1v-1.5c0-.5-.3-.8-.8-.8h-10.9c-.4 0-.8.3-.8.8v21.8c0 .5.4.9.8.9h11c.4 0 .7-.4.7-.9zm-359.5-11.9h-12.2a5.4 5.4 0 0 0 -5.5 5.3c0 3 2.5 5.4 5.5 5.4h16.2a16 16 0 1 1 0 32.2h-27c-7.2 0-7.2-10.7 0-10.7h27a5.4 5.4 0 1 0 0-10.8h-16.2a16 16 0 1 1 0-32.1h12.2c7.1 0 7.1 10.7 0 10.7z" fill-rule="nonzero"/></g><g fill-rule="nonzero"><path d="m159 5.3v21.3a22.6 22.6 0 0 1 34.6 19.1l-.1 26c0 7.2-10.7 7.2-10.7 0v-25.9a12 12 0 0 0 -23.9 0v25.9c0 7.2-10.6 7.2-10.6 0v-66.4c0-7 10.6-7 10.6 0z" fill="#cd0000"/><path d="m114.5 59.3v.4zm-45.5-54v17.9h15.3c2.8 0 5.3 2.4 5.3 5.3v30.8a7 7 0 1 0 14.2 0v-30.8c0-7 10.7-7 10.7 0v31a7 7 0 0 0 14.2 0v-31c0-7 10.7-7 10.6 0v30.8a17.8 17.8 0 0 1 -30 12.7 17.7 17.7 0 0 1 -30.3-12.7v-25.5h-10v37.8c0 7.2-10.7 7.2-10.7 0v-37.6h-14.3c-7.1 0-7.2-10.7 0-10.7h14.3v-18c0-7 10.7-7 10.6 0z" fill="#717676"/></g></svg>
